{
  "accessors": [
    {
      "bufferView": 2,
      "componentType": 5126,
      "count": 65533,
      "max": [
        503.36105346679688,
        363.97698974609375,
        321.43154907226562
      ],
      "min": [
        159.50732421875,
        40.771091461181641,
        -96.166145324707031
      ],
      "type": "VEC3"
    },
    {
      "bufferView": 0,
      "componentType": 5125,
      "count": 92944,
      "max": [
        65532
      ],
      "min": [
        0
      ],
      "type": "SCALAR"
    },
    {
      "bufferView": 2,
      "byteOffset": 786396,
      "componentType": 5126,
      "count": 65533,
      "max": [
        252.818359375,
        281.26019287109375,
        484.606201171875
      ],
      "min": [
        -151.49824523925781,
        -162.49568176269531,
        12.371767044067383
      ],
      "type": "VEC3"
    },
    {
      "bufferView": 0,
      "byteOffset": 371776,
      "componentType": 5125,
      "count": 92990,
      "max": [
        65532
      ],
      "min": [
        0
      ],
      "type": "SCALAR"
    },
    {
      "bufferView": 2,
      "byteOffset": 1572792,
      "componentType": 5126,
      "count": 65534,
      "max": [
        478.38467407226562,
        319.96099853515625,
        372.40725708007812
      ],
      "min": [
        -439.78768920898438,
        -12.499848365783691,
        -195.38888549804688
      ],
      "type": "VEC3"
    },
    {
      "bufferView": 0,
      "byteOffset": 743736,
      "componentType": 5125,
      "count": 92964,
      "max": [
        65533
      ],
      "min": [
        0
      ],
      "type": "SCALAR"
    },
    {
      "bufferView": 2,
      "byteOffset": 2359200,
      "componentType": 5126,
      "count": 65533,
      "max": [
        347.96310424804688,
        243.67474365234375,
        436.10873413085938
      ],
      "min": [
        -542.84942626953125,
        -92.827560424804688,
        -120.95510101318359
      ],
      "type": "VEC3"
    },
    {
      "bufferView": 0,
      "byteOffset": 1115592,
      "componentType": 5125,
      "count": 92944,
      "max": [
        65532
      ],
      "min": [
        0
      ],
      "type": "SCALAR"
    },
    {
      "bufferView": 2,
      "byteOffset": 3145596,
      "componentType": 5126,
      "count": 65533,
      "max": [
        410.35675048828125,
        301.586669921875,
        434.97027587890625
      ],
      "min": [
        -530.58782958984375,
        -56.784492492675781,
        -131.04058837890625
      ],
      "type": "VEC3"
    },
    {
      "bufferView": 0,
      "byteOffset": 1487368,
      "componentType": 5125,
      "count": 92950,
      "max": [
        65532
      ],
      "min": [
        0
      ],
      "type": "SCALAR"
    },
    {
      "bufferView": 2,
      "byteOffset": 3931992,
      "componentType": 5126,
      "count": 65533,
      "max": [
        447.656005859375,
        239.8365478515625,
        428.46432495117188
      ],
      "min": [
        -477.32220458984375,
        -181.08319091796875,
        -190.84016418457031
      ],
      "type": "VEC3"
    },
    {
      "bufferView": 0,
      "byteOffset": 1859168,
      "componentType": 5125,
      "count": 93778,
      "max": [
        65532
      ],
      "min": [
        0
      ],
      "type": "SCALAR"
    },
    {
      "bufferView": 2,
      "byteOffset": 4718388,
      "componentType": 5126,
      "count": 65533,
      "max": [
        438.82345581054688,
        216.53240966796875,
        368.68795776367188
      ],
      "min": [
        -452.89385986328125,
        -206.150634765625,
        -184.98233032226562
      ],
      "type": "VEC3"
    },
    {
      "bufferView": 0,
      "byteOffset": 2234280,
      "componentType": 5125,
      "count": 93512,
      "max": [
        65532
      ],
      "min": [
        0
      ],
      "type": "SCALAR"
    },
    {
      "bufferView": 2,
      "byteOffset": 5504784,
      "componentType": 5126,
      "count": 23413,
      "max": [
        462.11065673828125,
        225.9608154296875,
        327.248779296875
      ],
      "min": [
        -417.7548828125,
        -147.45213317871094,
        -281.09310913085938
      ],
      "type": "VEC3"
    },
    {
      "bufferView": 0,
      "byteOffset": 2608328,
      "componentType": 5125,
      "count": 32312,
      "max": [
        23412
      ],
      "min": [
        0
      ],
      "type": "SCALAR"
    },
    {
      "bufferView": 2,
      "byteOffset": 5785740,
      "componentType": 5126,
      "count": 65532,
      "max": [
        503.36105346679688,
        338.51898193359375,
        484.606201171875
      ],
      "min": [
        -424.7894287109375,
        -115.27004241943359,
        -149.42391967773438
      ],
      "type": "VEC3"
    },
    {
      "bufferView": 2,
      "byteOffset": 6572124,
      "componentType": 5126,
      "count": 65532,
      "max": [
        0.99995410442352295,
        0.99996531009674072,
        0.99928069114685059
      ],
      "min": [
        -0.99981790781021118,
        -0.99940156936645508,
        -0.99707067012786865
      ],
      "type": "VEC3"
    },
    {
      "bufferView": 3,
      "componentType": 5126,
      "count": 65532,
      "max": [
        0,
        0,
        0,
        1
      ],
      "min": [
        0,
        0,
        0,
        1
      ],
      "type": "VEC4"
    },
    {
      "bufferView": 1,
      "componentType": 5126,
      "count": 65532,
      "max": [
        0,
        1
      ],
      "min": [
        0,
        1
      ],
      "type": "VEC2"
    },
    {
      "bufferView": 0,
      "byteOffset": 2737576,
      "componentType": 5125,
      "count": 65532,
      "max": [
        65531
      ],
      "min": [
        0
      ],
      "type": "SCALAR"
    },
    {
      "bufferView": 2,
      "byteOffset": 7358508,
      "componentType": 5126,
      "count": 65532,
      "max": [
        461.08294677734375,
        279.49270629882812,
        410.1529541015625
      ],
      "min": [
        -522.61676025390625,
        -178.81332397460938,
        -166.9072265625
      ],
      "type": "VEC3"
    },
    {
      "bufferView": 2,
      "byteOffset": 8144892,
      "componentType": 5126,
      "count": 65532,
      "max": [
        0.9999539852142334,
        0.99996531009674072,
        0.99990165233612061
      ],
      "min": [
        -0.99993348121643066,
        -0.99951571226119995,
        -0.99980920553207397
      ],
      "type": "VEC3"
    },
    {
      "bufferView": 3,
      "byteOffset": 1048512,
      "componentType": 5126,
      "count": 65532,
      "max": [
        0,
        0,
        0,
        1
      ],
      "min": [
        0,
        0,
        0,
        1
      ],
      "type": "VEC4"
    },
    {
      "bufferView": 1,
      "byteOffset": 524256,
      "componentType": 5126,
      "count": 65532,
      "max": [
        0,
        1
      ],
      "min": [
        0,
        1
      ],
      "type": "VEC2"
    },
    {
      "bufferView": 0,
      "byteOffset": 2999704,
      "componentType": 5125,
      "count": 65532,
      "max": [
        65531
      ],
      "min": [
        0
      ],
      "type": "SCALAR"
    },
    {
      "bufferView": 2,
      "byteOffset": 8931276,
      "componentType": 5126,
      "count": 50093,
      "max": [
        466.2244873046875,
        228.01899719238281,
        335.08383178710938
      ],
      "min": [
        -399.5068359375,
        -149.16972351074219,
        -283.46255493164062
      ],
      "type": "VEC3"
    },
    {
      "bufferView": 2,
      "byteOffset": 9532392,
      "componentType": 5126,
      "count": 50093,
      "max": [
        0.99998342990875244,
        0.99995791912078857,
        0.99984318017959595
      ],
      "min": [
        -0.99998342990875244,
        -0.99988782405853271,
        -0.99967318773269653
      ],
      "type": "VEC3"
    },
    {
      "bufferView": 3,
      "byteOffset": 2097024,
      "componentType": 5126,
      "count": 50093,
      "max": [
        0,
        0,
        0,
        1
      ],
      "min": [
        0,
        0,
        0,
        1
      ],
      "type": "VEC4"
    },
    {
      "bufferView": 1,
      "byteOffset": 1048512,
      "componentType": 5126,
      "count": 50093,
      "max": [
        0,
        1
      ],
      "min": [
        0,
        1
      ],
      "type": "VEC2"
    },
    {
      "bufferView": 0,
      "byteOffset": 3261832,
      "componentType": 5125,
      "count": 50097,
      "max": [
        50092
      ],
      "min": [
        0
      ],
      "type": "SCALAR"
    }
  ],
  "asset": {
    "extras": {
      "author": "enealefons (https://sketchfab.com/enealefons)",
      "license": "CC-BY-4.0 (http://creativecommons.org/licenses/by/4.0/)",
      "source": "https://sketchfab.com/3d-models/uxr-neural-7844fabdc42c4909a4471ae5e9591953",
      "title": "UXR neural"
    },
    "generator": "Sketchfab-5.96.0",
    "version": "2.0"
  },
  "bufferViews": [
    {
      "buffer": 0,
      "byteLength": 3462220,
      "byteOffset": 0,
      "name": "floatBufferViews",
      "target": 34963
    },
    {
      "buffer": 0,
      "byteLength": 1449256,
      "byteOffset": 3462220,
      "byteStride": 8,
      "name": "floatBufferViews",
      "target": 34962
    },
    {
      "buffer": 0,
      "byteLength": 10133508,
      "byteOffset": 4911476,
      "byteStride": 12,
      "name": "floatBufferViews",
      "target": 34962
    },
    {
      "buffer": 0,
      "byteLength": 2898512,
      "byteOffset": 15044984,
      "byteStride": 16,
      "name": "floatBufferViews",
      "target": 34962
    }
  ],
  "buffers": [
    {
      "byteLength": 17943496,
      "uri": "scene.bin"
    }
  ],
  "materials": [
    {
      "doubleSided": true,
      "name": "Default_OBJ",
      "pbrMetallicRoughness": {
        "baseColorFactor": [
          0,
          0,
          0,
          1
        ],
        "metallicFactor": 0,
        "roughnessFactor": 0.10469697894472065
      }
    }
  ],
  "meshes": [
    {
      "primitives": [
        {
          "attributes": {
            "POSITION": 0
          },
          "indices": 1,
          "material": 0,
          "mode": 1
        }
      ]
    },
    {
      "primitives": [
        {
          "attributes": {
            "POSITION": 2
          },
          "indices": 3,
          "material": 0,
          "mode": 1
        }
      ]
    },
    {
      "primitives": [
        {
          "attributes": {
            "POSITION": 4
          },
          "indices": 5,
          "material": 0,
          "mode": 1
        }
      ]
    },
    {
      "primitives": [
        {
          "attributes": {
            "POSITION": 6
          },
          "indices": 7,
          "material": 0,
          "mode": 1
        }
      ]
    },
    {
      "primitives": [
        {
          "attributes": {
            "POSITION": 8
          },
          "indices": 9,
          "material": 0,
          "mode": 1
        }
      ]
    },
    {
      "primitives": [
        {
          "attributes": {
            "POSITION": 10
          },
          "indices": 11,
          "material": 0,
          "mode": 1
        }
      ]
    },
    {
      "primitives": [
        {
          "attributes": {
            "POSITION": 12
          },
          "indices": 13,
          "material": 0,
          "mode": 1
        }
      ]
    },
    {
      "primitives": [
        {
          "attributes": {
            "POSITION": 14
          },
          "indices": 15,
          "material": 0,
          "mode": 1
        }
      ]
    },
    {
      "primitives": [
        {
          "attributes": {
            "NORMAL": 17,
            "POSITION": 16,
            "TANGENT": 18,
            "TEXCOORD_0": 19
          },
          "indices": 20,
          "material": 0,
          "mode": 4
        }
      ]
    },
    {
      "primitives": [
        {
          "attributes": {
            "NORMAL": 22,
            "POSITION": 21,
            "TANGENT": 23,
            "TEXCOORD_0": 24
          },
          "indices": 25,
          "material": 0,
          "mode": 4
        }
      ]
    },
    {
      "primitives": [
        {
          "attributes": {
            "NORMAL": 27,
            "POSITION": 26,
            "TANGENT": 28,
            "TEXCOORD_0": 29
          },
          "indices": 30,
          "material": 0,
          "mode": 4
        }
      ]
    }
  ],
  "nodes": [
    {
      "children": [
        1
      ],
      "name": "RootNode (gltf orientation matrix)",
      "rotation": [
        -0.70710678118654746,
        -0,
        -0,
        0.70710678118654757
      ]
    },
    {
      "children": [
        2
      ],
      "matrix": [
        1,
        0,
        0,
        0,
        0,
        -4.4408920985006262e-16,
        1,
        0,
        0,
        -1,
        -4.4408920985006262e-16,
        0,
        0,
        179.48330688476562,
        21.659881591796875,
        1
      ],
      "name": "RootNode (model correction matrix)"
    },
    {
      "children": [
        3,
        4,
        5,
        6,
        7,
        8,
        9,
        10,
        11,
        12,
        13
      ],
      "name": "worldCloud.OBJ.cleaner.materialmerger.gles"
    },
    {
      "mesh": 0,
      "name": ""
    },
    {
      "mesh": 1,
      "name": ""
    },
    {
      "mesh": 2,
      "name": ""
    },
    {
      "mesh": 3,
      "name": ""
    },
    {
      "mesh": 4,
      "name": ""
    },
    {
      "mesh": 5,
      "name": ""
    },
    {
      "mesh": 6,
      "name": ""
    },
    {
      "mesh": 7,
      "name": ""
    },
    {
      "mesh": 8,
      "name": ""
    },
    {
      "mesh": 9,
      "name": ""
    },
    {
      "mesh": 10,
      "name": ""
    }
  ],
  "scene": 0,
  "scenes": [
    {
      "name": "OSG_Scene",
      "nodes": [
        0
      ]
    }
  ]
}

